<svg aria-hidden="true" style="position: absolute; width: 0; height: 0; overflow: hidden;" version="1.1"
    xmlns="http://www.w3.org/2000/svg" xmlns:xlink="http://www.w3.org/1999/xlink">
    <defs>
        <symbol id="logo" viewBox="0 0 76 32">
            <path
                d="M46.429 28.349c-0.708 0-1.314-0.141-1.818-0.422-0.504-0.291-0.887-0.674-1.149-1.149-0.252-0.485-0.378-1.009-0.378-1.571 0-0.175 0.039-0.31 0.116-0.407 0.087-0.097 0.233-0.145 0.436-0.145 0.378 0 0.567 0.16 0.567 0.48 0 0.456 0.102 0.849 0.305 1.178s0.475 0.582 0.815 0.756c0.339 0.175 0.708 0.262 1.105 0.262 0.582 0 1.057-0.136 1.425-0.407 0.378-0.271 0.567-0.664 0.567-1.178 0-0.378-0.102-0.689-0.305-0.931-0.204-0.252-0.47-0.451-0.8-0.596-0.33-0.155-0.752-0.31-1.265-0.465-0.553-0.155-1.023-0.315-1.411-0.48-0.388-0.175-0.752-0.451-1.091-0.829-0.33-0.378-0.495-0.878-0.495-1.498 0-0.553 0.145-1.047 0.436-1.484s0.679-0.776 1.164-1.018c0.485-0.242 1.018-0.364 1.6-0.364 0.601 0 1.144 0.131 1.629 0.393 0.495 0.262 0.878 0.606 1.149 1.033 0.281 0.427 0.422 0.878 0.422 1.353 0 0.213-0.044 0.364-0.131 0.451-0.078 0.087-0.213 0.131-0.407 0.131-0.223 0-0.373-0.044-0.451-0.131s-0.116-0.209-0.116-0.364c0-0.514-0.194-0.95-0.582-1.309s-0.892-0.538-1.513-0.538c-0.621 0-1.125 0.179-1.513 0.538-0.378 0.349-0.567 0.79-0.567 1.324 0 0.359 0.102 0.655 0.305 0.887 0.213 0.223 0.475 0.398 0.785 0.524 0.32 0.126 0.771 0.276 1.353 0.451 0.495 0.155 0.941 0.33 1.338 0.524 0.407 0.184 0.771 0.475 1.091 0.873s0.48 0.902 0.48 1.513c0 0.524-0.136 0.984-0.407 1.382-0.262 0.398-0.63 0.703-1.105 0.916-0.465 0.213-0.994 0.32-1.585 0.32zM57.651 22.836c0.136 0.543 0.228 1.217 0.276 2.022s0.073 1.828 0.073 3.069c0 0.126-0.053 0.233-0.16 0.32-0.097 0.078-0.228 0.116-0.393 0.116s-0.301-0.039-0.407-0.116c-0.097-0.087-0.145-0.213-0.145-0.378 0-2.55-0.107-4.17-0.32-4.858-0.116-0.398-0.286-0.684-0.509-0.858-0.213-0.184-0.504-0.276-0.873-0.276-0.504 0-0.931 0.15-1.28 0.451-0.349 0.291-0.611 0.664-0.785 1.12s-0.262 0.931-0.262 1.425v3.069c0 0.116-0.053 0.213-0.16 0.291s-0.238 0.116-0.393 0.116c-0.165 0-0.301-0.039-0.407-0.116-0.097-0.078-0.145-0.179-0.145-0.305 0-2.007 0.024-3.898 0.073-5.673 0.048-1.59 0.126-3.19 0.233-4.8 0.029-0.339 0.213-0.509 0.553-0.509 0.155 0 0.281 0.039 0.378 0.116 0.107 0.068 0.155 0.165 0.145 0.291l-0.102 2.036c-0.058 1.251-0.107 2.162-0.145 2.735 0.242-0.359 0.562-0.655 0.96-0.887 0.398-0.242 0.892-0.364 1.484-0.364 0.64 0 1.139 0.16 1.498 0.48 0.368 0.32 0.64 0.815 0.815 1.484zM62.923 28.378c-1.096 0-2.007-0.291-2.735-0.873-0.718-0.582-1.076-1.493-1.076-2.735 0-0.776 0.145-1.455 0.436-2.036 0.301-0.591 0.732-1.052 1.295-1.382s1.227-0.495 1.993-0.495c0.737 0 1.396 0.155 1.978 0.465 0.591 0.301 1.052 0.747 1.382 1.338 0.339 0.582 0.509 1.28 0.509 2.095 0 1.183-0.349 2.085-1.047 2.705-0.689 0.611-1.6 0.916-2.735 0.916zM62.894 27.462c0.776 0 1.416-0.228 1.92-0.684 0.514-0.465 0.771-1.144 0.771-2.036 0-0.582-0.116-1.096-0.349-1.542-0.223-0.456-0.543-0.805-0.96-1.047-0.407-0.252-0.878-0.378-1.411-0.378-0.795 0-1.435 0.271-1.92 0.815-0.475 0.543-0.713 1.261-0.713 2.153 0 0.941 0.257 1.629 0.771 2.065s1.144 0.655 1.891 0.655zM71.938 20.902c0.65 0 1.241 0.141 1.774 0.422 0.543 0.271 0.975 0.689 1.295 1.251 0.32 0.553 0.48 1.236 0.48 2.051 0 0.785-0.155 1.464-0.465 2.036-0.3 0.562-0.722 0.989-1.265 1.28s-1.164 0.436-1.862 0.436c-0.572 0-1.091-0.082-1.556-0.247s-0.81-0.33-1.033-0.495l-0.044 1.469-0.058 2.051c-0.010 0.145-0.068 0.257-0.175 0.335-0.097 0.087-0.228 0.131-0.393 0.131-0.175 0-0.31-0.049-0.407-0.145-0.087-0.087-0.131-0.209-0.131-0.364 0.019-0.785 0.039-1.396 0.058-1.833l0.044-1.585c0.029-1.154 0.044-2.633 0.044-4.436 0-0.301-0.034-0.548-0.102-0.742-0.068-0.204-0.175-0.393-0.32-0.567-0.010-0.010-0.039-0.034-0.087-0.073-0.039-0.049-0.058-0.116-0.058-0.204 0-0.126 0.068-0.242 0.204-0.349 0.145-0.116 0.281-0.175 0.407-0.175 0.068 0 0.126 0.019 0.175 0.058 0.058 0.029 0.092 0.049 0.102 0.058 0.068 0.058 0.16 0.184 0.276 0.378 0.126 0.194 0.228 0.383 0.305 0.567 0.233-0.339 0.587-0.64 1.062-0.902 0.475-0.271 1.052-0.407 1.731-0.407zM71.879 27.447c0.737 0 1.333-0.247 1.789-0.742 0.465-0.495 0.698-1.193 0.698-2.095 0-0.941-0.238-1.634-0.713-2.080s-1.062-0.669-1.76-0.669c-0.485 0-0.921 0.111-1.309 0.335-0.388 0.213-0.689 0.465-0.902 0.756s-0.32 0.524-0.32 0.698c0 1.067-0.005 1.983-0.015 2.749 0.048 0.126 0.204 0.276 0.465 0.451 0.262 0.165 0.577 0.305 0.945 0.422 0.378 0.116 0.751 0.175 1.12 0.175z">
            </path>
            <path
                d="M42.807 14.735c0-0.155 0.039-0.281 0.116-0.378 0.087-0.107 0.218-0.155 0.393-0.145h0.204c0.136-1.348 0.204-2.846 0.204-4.495 0-1.329-0.010-2.381-0.029-3.156l-0.16 0.044c-0.116 0.019-0.218-0.005-0.305-0.073-0.078-0.068-0.116-0.175-0.116-0.32 0-0.155 0.048-0.281 0.145-0.378 0.107-0.107 0.286-0.213 0.538-0.32 0.824-0.349 1.726-0.524 2.705-0.524 0.727 0 1.387 0.112 1.978 0.335s1.057 0.548 1.396 0.975c0.349 0.417 0.524 0.916 0.524 1.498 0 0.601-0.247 1.115-0.742 1.542-0.485 0.427-1.115 0.693-1.891 0.8 0.766 0.126 1.372 0.422 1.818 0.887 0.446 0.456 0.669 0.97 0.669 1.542 0 0.611-0.179 1.13-0.538 1.556-0.359 0.417-0.839 0.727-1.44 0.931-0.601 0.194-1.256 0.276-1.964 0.247l-1.018-0.044-0.756-0.015c-0.068 0.242-0.238 0.364-0.509 0.364-0.32 0-0.514-0.136-0.582-0.407l-0.189-0.015c-0.301-0.019-0.451-0.17-0.451-0.451zM44.611 14.269c0.737 0.019 1.285 0.029 1.644 0.029 0.96 0 1.682-0.136 2.167-0.407s0.727-0.713 0.727-1.324c0-0.679-0.281-1.159-0.844-1.44-0.562-0.291-1.353-0.461-2.371-0.509-0.213-0.010-0.383-0.044-0.509-0.102-0.116-0.068-0.175-0.204-0.175-0.407s0.058-0.339 0.175-0.407c0.126-0.068 0.286-0.107 0.48-0.116 0.64-0.039 1.188-0.097 1.644-0.175s0.858-0.242 1.207-0.495c0.349-0.252 0.524-0.625 0.524-1.12 0-0.601-0.252-1.057-0.756-1.367-0.495-0.31-1.169-0.465-2.022-0.465-0.252 0-0.538 0.019-0.858 0.058s-0.596 0.092-0.829 0.16c0.019 0.902 0.029 2.075 0.029 3.52 0 1.532-0.078 3.055-0.233 4.567zM55.55 15.287c-1.096 0-2.007-0.291-2.735-0.873-0.718-0.582-1.076-1.493-1.076-2.735 0-0.776 0.145-1.455 0.436-2.036 0.301-0.591 0.732-1.052 1.295-1.382s1.227-0.495 1.993-0.495c0.737 0 1.396 0.155 1.978 0.465 0.592 0.301 1.052 0.747 1.382 1.338 0.339 0.582 0.509 1.28 0.509 2.095 0 1.183-0.349 2.085-1.047 2.705-0.688 0.611-1.6 0.916-2.735 0.916zM55.521 14.371c0.776 0 1.416-0.228 1.92-0.684 0.514-0.465 0.771-1.144 0.771-2.036 0-0.582-0.116-1.096-0.349-1.542-0.223-0.456-0.543-0.805-0.96-1.047-0.407-0.252-0.878-0.378-1.411-0.378-0.795 0-1.435 0.271-1.92 0.815-0.475 0.543-0.713 1.261-0.713 2.153 0 0.941 0.257 1.629 0.771 2.065s1.144 0.655 1.891 0.655zM64.173 15.287c-1.096 0-2.007-0.291-2.735-0.873-0.718-0.582-1.076-1.493-1.076-2.735 0-0.776 0.145-1.455 0.436-2.036 0.301-0.591 0.732-1.052 1.295-1.382s1.227-0.495 1.993-0.495c0.737 0 1.396 0.155 1.978 0.465 0.592 0.301 1.052 0.747 1.382 1.338 0.339 0.582 0.509 1.28 0.509 2.095 0 1.183-0.349 2.085-1.047 2.705-0.688 0.611-1.6 0.916-2.735 0.916zM64.144 14.371c0.776 0 1.416-0.228 1.92-0.684 0.514-0.465 0.771-1.144 0.771-2.036 0-0.582-0.116-1.096-0.349-1.542-0.223-0.456-0.543-0.805-0.96-1.047-0.407-0.252-0.878-0.378-1.411-0.378-0.795 0-1.435 0.271-1.92 0.815-0.475 0.543-0.713 1.261-0.713 2.153 0 0.941 0.257 1.629 0.771 2.065s1.144 0.655 1.891 0.655zM70.38 15.345c-0.155 0-0.286-0.039-0.393-0.116s-0.16-0.175-0.16-0.291v-10.284c0-0.155 0.049-0.276 0.145-0.364s0.233-0.131 0.407-0.131c0.175 0 0.31 0.044 0.407 0.131 0.107 0.078 0.16 0.199 0.16 0.364l-0.029 5.149 1.062-0.596c1.464-0.824 2.434-1.382 2.909-1.673 0.145-0.087 0.257-0.131 0.335-0.131 0.135 0 0.252 0.073 0.349 0.218 0.106 0.136 0.16 0.286 0.16 0.451 0 0.107-0.107 0.223-0.32 0.349l-4.48 2.662 4.538 3.229c0.097 0.078 0.145 0.184 0.145 0.32 0 0.145-0.063 0.281-0.189 0.407-0.116 0.116-0.238 0.175-0.364 0.175-0.116 0-0.262-0.053-0.436-0.16l-1.498-1.047c-0.708-0.524-1.44-1.042-2.197-1.556l-0.015 2.473c0 0.126-0.053 0.228-0.16 0.305-0.097 0.078-0.223 0.116-0.378 0.116z">
            </path>
            <path
                d="M1.455 7.202c0-0.402-0.326-0.727-0.727-0.727s-0.727 0.326-0.727 0.727h1.455zM0.727 29.153h-0.727c0 0.23 0.109 0.447 0.294 0.584s0.424 0.179 0.644 0.112l-0.211-0.696zM18.545 30.545l-0.298 0.663c0.197 0.089 0.424 0.085 0.618-0.010l-0.32-0.653zM36.364 29.153l-0.196 0.7c0.219 0.061 0.454 0.016 0.635-0.121s0.288-0.352 0.288-0.579h-0.727zM37.091 7.202c0-0.402-0.326-0.727-0.727-0.727s-0.727 0.326-0.727 0.727h1.455zM4.321 5.586c0-0.402-0.326-0.727-0.727-0.727s-0.727 0.326-0.727 0.727h1.455zM3.594 24.417h-0.727c0 0.402 0.326 0.727 0.727 0.727v-0.727zM34.168 5.586c0-0.402-0.326-0.727-0.727-0.727s-0.727 0.326-0.727 0.727h1.455zM33.441 24.417v0.727c0.402 0 0.727-0.326 0.727-0.727h-0.727zM18.545 10.935l-0.621 0.378c0.134 0.221 0.376 0.354 0.634 0.349s0.495-0.146 0.622-0.372l-0.634-0.356zM14.266 23.999c0.354 0.19 0.795 0.058 0.985-0.296s0.058-0.795-0.296-0.985l-0.689 1.281zM16.072 6.868l0.621-0.378c-0.066-0.109-0.16-0.198-0.271-0.26l-0.35 0.637zM21.075 6.422l-0.277-0.673c-0.152 0.062-0.278 0.174-0.358 0.317l0.634 0.356zM22.236 22.725c-0.35 0.197-0.474 0.64-0.278 0.99s0.64 0.474 0.99 0.278l-0.713-1.268zM8.99 7.812c-0.402 0-0.727 0.326-0.727 0.727s0.326 0.727 0.727 0.727v-1.455zM14.122 11.473c0.298 0.27 0.757 0.247 1.027-0.050s0.247-0.757-0.050-1.027l-0.977 1.077zM9.063 11.882c-0.4-0.040-0.756 0.251-0.797 0.651s0.251 0.756 0.651 0.796l0.146-1.447zM14.075 15.94c0.272 0.296 0.732 0.315 1.028 0.043s0.315-0.732 0.043-1.028l-1.071 0.984zM9.071 16.229c-0.399-0.045-0.759 0.242-0.804 0.642s0.243 0.759 0.642 0.804l0.162-1.445zM14.129 20.17c0.301 0.266 0.76 0.238 1.027-0.062s0.238-0.76-0.062-1.027l-0.964 1.089zM22.056 10.444c-0.271 0.296-0.251 0.756 0.046 1.027s0.756 0.251 1.027-0.046l-1.073-0.982zM27.988 9.266c0.402 0 0.727-0.326 0.727-0.727s-0.326-0.727-0.727-0.727v1.455zM21.862 14.652c-0.316 0.248-0.371 0.705-0.123 1.021s0.705 0.371 1.021 0.123l-0.898-1.144zM28.109 13.323c0.396-0.067 0.663-0.442 0.596-0.838s-0.442-0.663-0.838-0.596l0.241 1.434zM21.812 19.097c-0.292 0.276-0.305 0.736-0.029 1.028s0.736 0.305 1.028 0.029l-1-1.057zM28.064 17.675c0.399-0.042 0.69-0.399 0.648-0.799s-0.399-0.69-0.799-0.648l0.151 1.447zM18.545 28.727l-0.592 0.423c0.137 0.191 0.357 0.305 0.592 0.305s0.455-0.113 0.592-0.305l-0.592-0.423zM15.501 23.214c-0.233-0.327-0.688-0.403-1.014-0.169s-0.403 0.688-0.169 1.014l1.184-0.845zM19.273 11.273c0-0.402-0.326-0.727-0.727-0.727s-0.727 0.326-0.727 0.727h1.455zM22.774 24.059c0.233-0.327 0.158-0.781-0.169-1.014s-0.781-0.158-1.014 0.169l1.184 0.845zM22.622 10.903v0zM14.176 10.54v0zM14.793 27.518v0zM30.695 27.762v0zM33.227 28.276v0zM21.202 29.246v0zM30.414 27.726v0zM22.449 27.486v0zM0 7.202v21.951h1.455v-21.951h-1.455zM37.091 29.153v-21.951h-1.455v21.951h1.455zM11.661 28.681l0.089 0.019 0.302-1.423-0.089-0.019-0.302 1.423zM15.102 29.795l3.146 1.414 0.596-1.327-3.146-1.414-0.596 1.327zM0.938 29.849l2.738-0.829-0.422-1.392-2.738 0.829 0.422 1.392zM18.865 31.199l2.657-1.3-0.639-1.307-2.657 1.3 0.639 1.306zM30.322 28.447l0.28 0.036 0.186-1.443-0.28-0.036-0.186 1.443zM33.031 28.976l3.137 0.877 0.392-1.401-3.137-0.877-0.392 1.401zM2.867 5.586v18.831h1.455v-18.831h-1.455zM3.594 25.144h2.417v-1.455h-2.417v1.455zM32.714 5.586v18.831h1.455v-18.831h-1.455zM33.441 23.69h-2.101v1.455h2.101v-1.455zM14.336 28.084l3.753 3.027 0.913-1.132-3.753-3.027-0.913 1.132zM22.001 26.914l-3.904 3.059 0.897 1.145 3.904-3.059-0.897-1.145zM5.508 3.636v17.104h1.455v-17.104h-1.455zM19.167 10.557l-2.473-4.067-1.243 0.756 2.473 4.067 1.243-0.756zM16.422 6.23l-1.068-0.587-0.7 1.275 1.068 0.587 0.7-1.275zM19.18 11.29l2.529-4.513-1.269-0.711-2.529 4.513 1.269 0.711zM21.351 7.095l1.42-0.584-0.553-1.345-1.42 0.584 0.553 1.345zM29.791 3.866l0.169 16.881 1.454-0.015-0.169-16.881-1.454 0.015zM13.687 11.079l0.435 0.394 0.977-1.077-0.435-0.394-0.977 1.078zM14.027 15.886l0.049 0.053 1.071-0.984-0.049-0.053-1.071 0.984zM13.731 19.818l0.398 0.352 0.964-1.089-0.398-0.352-0.964 1.089zM23.129 11.426l0.029-0.032-1.073-0.982-0.029 0.032 1.073 0.982zM22.76 15.797l0.321-0.252-0.898-1.144-0.321 0.252 0.898 1.144zM22.811 20.154l0.133-0.126-1-1.057-0.133 0.126 1 1.057zM19.137 28.305l-3.636-5.091-1.184 0.845 3.636 5.091 1.184-0.845zM19.273 28.727v-17.455h-1.455v17.455h1.455zM19.137 29.15l3.636-5.091-1.184-0.845-3.636 5.091 1.184 0.845zM23.082 15.544c1.464-1.149 3.192-1.912 5.027-2.221l-0.241-1.434c-2.075 0.349-4.029 1.213-5.684 2.511l0.898 1.144zM23.158 11.394c1.24-1.355 2.993-2.127 4.83-2.127v-1.455c-2.245 0-4.387 0.943-5.903 2.6l1.073 0.982zM8.99 9.266c1.736 0 3.411 0.646 4.697 1.813l0.977-1.078c-1.554-1.409-3.577-2.19-5.674-2.19v1.455zM6.154 21.463c2.841 0.321 5.595 1.182 8.112 2.536l0.689-1.281c-2.681-1.442-5.613-2.359-8.638-2.701l-0.163 1.445zM12.143 26.648c0.777 0.405 1.511 0.886 2.193 1.436l0.913-1.132c-0.757-0.61-1.572-1.144-2.433-1.594l-0.673 1.29zM8.909 17.674c1.79 0.201 3.474 0.949 4.822 2.144l0.964-1.089c-1.572-1.393-3.537-2.266-5.624-2.5l-0.162 1.445zM31.34 23.69c-2.542 0-5.044 0.64-7.274 1.862l0.699 1.276c2.016-1.104 4.277-1.683 6.575-1.683v-1.455zM30.602 28.483c0.821 0.106 1.633 0.27 2.429 0.493l0.392-1.401c-0.864-0.242-1.745-0.421-2.635-0.535l-0.186 1.443zM3.676 29.019c0.833-0.252 1.686-0.436 2.549-0.551l-0.191-1.442c-0.941 0.124-1.871 0.325-2.78 0.6l0.422 1.392zM21.522 29.899c1.132-0.554 2.327-0.968 3.559-1.232l-0.306-1.422c-1.347 0.29-2.654 0.742-3.892 1.348l0.639 1.307zM22.771 6.511c2.495-1.026 5.129-1.676 7.814-1.927l-0.136-1.448c-2.829 0.265-5.604 0.95-8.232 2.030l0.553 1.345zM25.080 28.666c1.722-0.37 3.494-0.444 5.241-0.22l0.186-1.443c-1.911-0.246-3.849-0.165-5.733 0.24l0.306 1.422zM24.067 25.551c-0.725 0.397-1.416 0.852-2.066 1.362l0.897 1.145c0.588-0.461 1.212-0.872 1.867-1.231l-0.699-1.276zM30.603 20.018c-2.927 0.339-5.796 1.262-8.367 2.707l0.713 1.268c2.401-1.35 5.083-2.213 7.821-2.53l-0.167-1.445zM11.75 28.7c1.153 0.245 2.276 0.612 3.352 1.095l0.596-1.327c-1.169-0.526-2.392-0.925-3.646-1.191l-0.302 1.423zM8.917 13.33c1.959 0.197 3.777 1.107 5.11 2.557l1.071-0.984c-1.574-1.712-3.721-2.786-6.034-3.020l-0.146 1.447zM6.011 25.144c2.135 0 4.239 0.516 6.133 1.503l0.673-1.29c-2.101-1.096-4.436-1.668-6.805-1.668v1.455zM22.945 20.028c1.401-1.326 3.201-2.153 5.119-2.353l-0.151-1.447c-2.237 0.233-4.335 1.198-5.968 2.743l1 1.057zM15.354 5.643c-2.794-1.535-5.881-2.466-9.058-2.732l-0.121 1.449c2.974 0.249 5.863 1.12 8.479 2.557l0.7-1.275zM11.963 27.258c-1.949-0.414-3.954-0.492-5.928-0.231l0.191 1.442c1.811-0.239 3.649-0.168 5.436 0.212l0.302-1.423z">
            </path>
        </symbol>
        <symbol id="advan-1" viewBox="0 0 32 32">
            <path
                d="M16.213 23.899v0zM15.787 23.899v0zM24.8 12c0 3.353-1.82 6.027-3.872 7.976-2.050 1.947-4.276 3.114-4.949 3.443l0.469 0.958c0.718-0.351 3.053-1.575 5.215-3.628 2.16-2.051 4.204-4.986 4.204-8.75h-1.067zM16 3.2c4.86 0 8.8 3.94 8.8 8.8h1.067c0-5.449-4.417-9.867-9.867-9.867v1.067zM7.2 12c0-4.86 3.94-8.8 8.8-8.8v-1.067c-5.449 0-9.867 4.417-9.867 9.867h1.067zM16.021 23.42c-0.673-0.329-2.899-1.496-4.949-3.443-2.053-1.949-3.872-4.623-3.872-7.976h-1.067c0 3.764 2.045 6.699 4.204 8.75 2.162 2.053 4.496 3.277 5.215 3.628l0.469-0.958zM15.979 23.42c0.003-0.002 0.011-0.004 0.021-0.004s0.018 0.003 0.021 0.004l-0.469 0.958c0.284 0.139 0.611 0.139 0.895 0l-0.469-0.958zM19.467 12c0 1.915-1.552 3.467-3.467 3.467v1.067c2.504 0 4.533-2.030 4.533-4.533h-1.067zM16 8.533c1.915 0 3.467 1.552 3.467 3.467h1.067c0-2.504-2.030-4.533-4.533-4.533v1.067zM12.533 12c0-1.915 1.552-3.467 3.467-3.467v-1.067c-2.504 0-4.533 2.030-4.533 4.533h1.067zM16 15.467c-1.915 0-3.467-1.552-3.467-3.467h-1.067c0 2.504 2.030 4.533 4.533 4.533v-1.067z">
            </path>
            <path stroke-linejoin="miter" stroke-linecap="round" stroke-miterlimit="4" stroke-width="1.0667"
                d="M26.392 23.333c1.053 0.608 1.608 1.298 1.608 2s-0.554 1.392-1.608 2c-1.053 0.608-2.568 1.113-4.392 1.464s-3.894 0.536-6 0.536c-2.106 0-4.176-0.185-6-0.536s-3.339-0.856-4.392-1.464c-1.053-0.608-1.608-1.298-1.608-2s0.554-1.392 1.608-2">
            </path>
        </symbol>
        <symbol id="advan-2" viewBox="0 0 32 32">
            <path stroke-linejoin="miter" stroke-linecap="butt" stroke-miterlimit="4" stroke-width="1.0667"
                d="M9.067 5.333h15.2c0.589 0 1.067 0.478 1.067 1.067v20.533c0 0.589-0.478 1.067-1.067 1.067h-15.2c-0.589 0-1.067-0.478-1.067-1.067v-20.533c0-0.589 0.478-1.067 1.067-1.067z">
            </path>
            <path stroke-linejoin="miter" stroke-linecap="round" stroke-miterlimit="4" stroke-width="1.0667"
                d="M20 13.333v-2.667"></path>
            <path stroke-linejoin="miter" stroke-linecap="round" stroke-miterlimit="4" stroke-width="1.0667"
                d="M5.333 12h5.333"></path>
            <path stroke-linejoin="miter" stroke-linecap="round" stroke-miterlimit="4" stroke-width="1.0667"
                d="M5.333 17.333h5.333"></path>
            <path stroke-linejoin="miter" stroke-linecap="round" stroke-miterlimit="4" stroke-width="1.0667"
                d="M5.333 22.667h5.333"></path>
        </symbol>
        <symbol id="advan-3" viewBox="0 0 32 32">
            <path stroke-linejoin="miter" stroke-linecap="round" stroke-miterlimit="4" stroke-width="1.0667"
                d="M25.067 6.4l-18.133 18.133"></path>
            <path stroke-linejoin="miter" stroke-linecap="butt" stroke-miterlimit="4" stroke-width="1.0667"
                d="M11.733 9.067c0 1.473-1.194 2.667-2.667 2.667s-2.667-1.194-2.667-2.667c0-1.473 1.194-2.667 2.667-2.667s2.667 1.194 2.667 2.667z">
            </path>
            <path stroke-linejoin="miter" stroke-linecap="butt" stroke-miterlimit="4" stroke-width="1.0667"
                d="M25.6 22.933c0 1.473-1.194 2.667-2.667 2.667s-2.667-1.194-2.667-2.667c0-1.473 1.194-2.667 2.667-2.667s2.667 1.194 2.667 2.667z">
            </path>
        </symbol>
        <symbol id="advan-4" viewBox="0 0 32 32">
            <path stroke-linejoin="miter" stroke-linecap="round" stroke-miterlimit="4" stroke-width="1.0667"
                d="M28.533 16c0 6.922-5.611 12.533-12.533 12.533s-12.533-5.611-12.533-12.533c0-6.922 5.611-12.533 12.533-12.533s12.533 5.611 12.533 12.533z">
            </path>
            <path stroke-linejoin="miter" stroke-linecap="round" stroke-miterlimit="4" stroke-width="1.0667"
                d="M11.032 20.403c0.544 0.471 1.294 0.837 2.153 1.085 0.864 0.249 1.834 0.378 2.815 0.378s1.951-0.129 2.815-0.378c0.86-0.248 1.61-0.615 2.153-1.085">
            </path>
            <path
                d="M13.467 13.333c0 0.81-0.657 1.467-1.467 1.467s-1.467-0.657-1.467-1.467c0-0.81 0.657-1.467 1.467-1.467s1.467 0.657 1.467 1.467z">
            </path>
            <path
                d="M21.467 13.333c0 0.81-0.657 1.467-1.467 1.467s-1.467-0.657-1.467-1.467c0-0.81 0.657-1.467 1.467-1.467s1.467 0.657 1.467 1.467z">
            </path>
        </symbol>
    </defs>
</svg>